<svg version="1.2" xmlns="http://www.w3.org/2000/svg" viewBox="0 0 263 188" width="263" height="188">
	<title>logfinal</title>
	<style>
		.s0 { fill: #3a9357 } 
		.s1 { fill: #399255 } 
	</style>
	<path class="s0" d="m176.82 14.95c2.48 1.93 4.84 3.94 7.18 6.05 1.06 0.94 1.06 0.94 2.14 1.9 9.49 8.89 15.88 20.63 18.54 33.37 1.09 3.07 1.09 3.07 4.52 3.94q2.02 0.39 4.05 0.73c15.29 3.22 27.79 10.68 37.13 23.27 10.32 16.03 13.8 35.04 9.94 53.87-0.91 3.12-1.97 5.97-3.32 8.92q-0.63 1.41-1.29 2.87c-3.5 7.04-8.19 12.58-13.71 18.13q-0.88 0.93-1.79 1.9c-4.12 4.01-8.78 6.71-13.83 9.35q-0.92 0.49-1.87 1c-13.81 6.84-28.75 6.19-43.77 6.09q-5.44-0.03-10.88-0.02-3.49-0.01-6.98-0.02c-1.61 0-1.61 0-3.25 0-14.15-0.13-14.15-0.13-18.63-4.05-1.34-3.02-1.48-4.98-1-8.25 1.9-2.61 3.15-3.78 6.29-4.6 2.84-0.42 5.54-0.53 8.41-0.54q1.68-0.01 3.4-0.02c1.81-0.01 1.81-0.01 3.65-0.02q3.86-0.03 7.72-0.07 6.06-0.06 12.12-0.08 5.86-0.02 11.73-0.1c1.78 0.01 1.78 0.01 3.61 0.01 13.39-0.19 25.03-4.42 35.1-13.39 9.76-10.29 13.48-22.99 13.22-36.85-0.89-11.86-5.35-23.21-14.25-31.34-10.24-7.68-19.23-10.29-31.79-11.09-5.66-0.46-5.66-0.46-8.17-2.51-1.4-3.22-1.87-6.45-2.35-9.9-2.28-13.64-8.65-24.15-19.55-32.76-14.46-10.15-28.89-11.95-46.14-10.74-12.2 2.15-25.09 8.33-32.77 18.3-4.04 5.95-6.82 12.12-9.28 18.84-1.76 4.76-1.76 4.76-3.95 5.86q-2.98 0.15-5.97 0.24c-15.73 0.48-28.63 4.84-39.84 16.39-10.96 12.88-13.12 27.71-12.39 43.96 0.98 12.04 7.45 24.54 16.58 32.47 10.27 7.58 20.27 11.87 33 12.5q1.22 0.07 2.47 0.13c10.05 0.47 20.1 0.4 30.15 0.31q-0.05-1.58-0.09-3.2c0.08-3.37 0.44-5.46 1.59-8.55 1.24-3.71 1.55-6.52 1.24-10.4-0.09-6.69 2.48-11.06 5.89-16.66q1.65-2.87 3.3-5.75 0.79-1.38 1.61-2.79c2.95-5.35 5.25-10.96 7.46-16.65q-0.49-0.49-1-1c-7.8 11.07-15.05 22.38-22 34-6.66-7.99-11.01-15.9-10.45-26.5 1.73-13.39 4.82-24.2 15.64-33 11.21-7.98 25.52-14.84 38.81-18.5q1.48 0.49 3 1c0.87 2.72 1.54 5.28 2.13 8.06q0.25 1.11 0.51 2.24c3.76 16.96 4.46 35.41-4.85 50.68-6.21 8.98-15.26 15.81-23.89 22.33-2.16 1.64-2.16 1.64-2.9 4.69q-0.05 3.58 0.04 7.15 0.04 2.15 0.07 4.29 0.05 3.38 0.14 6.75 0.07 3.26 0.11 6.52c0.04 1.96 0.04 1.96 0.08 3.95-0.44 3.34-0.44 3.34-2.09 5.73-5.22 3.57-11.96 2.78-18.07 2.81-1.4 0.01-1.4 0.01-2.83 0.02q-2.97 0.01-5.93 0.02-4.47 0.02-8.94 0.07c-19.68 0.11-36.68-2.86-52.58-15.31q-1.04-0.8-2.12-1.62c-13.15-10.7-21.54-27.6-23.35-44.35-1.79-20.19 3.11-38.13 15.31-54.5 10.86-12.96 25.67-20.65 42.16-23.53q1.8-0.09 3.65-0.18c3.56-0.5 3.56-0.5 5.43-3.56q0.85-1.76 1.73-3.57c9.47-18.21 24.46-29.88 44-36.06 21.8-5.34 44.54-1.46 63.01 11.32z"/>
	<path class="s1" d="m185.39 100.53c2.63 2.07 5.12 4.23 7.61 6.47q1.61 1.42 3.23 2.83 1.64 1.46 3.27 2.92 0.77 0.69 1.57 1.39c3.67 3.36 5.66 5.79 6.31 10.73-0.82 6.79-6.25 11.24-11.07 15.63q-0.92 0.85-1.87 1.72c-12.51 11.34-12.51 11.34-19.81 12.15-3.63-0.37-3.63-0.37-6.13-2.56-1.5-2.81-1.5-2.81-1.45-5.11 1.32-3.76 3.81-6.02 6.64-8.7q0.77-0.76 1.57-1.54c3.43-3.34 7.03-6.43 10.74-9.46-0.19-3.86-0.95-4.95-3.8-7.68q-1.74-1.4-3.51-2.76c-10.19-7.91-10.19-7.91-11.06-14.31 0.37-2.25 0.37-2.25 2.37-4.25 5.44-1.9 10.63-0.52 15.39 2.53z"/>
	<path class="s0" d="m78.31 97.75c1.69 1.25 1.69 1.25 2.69 3 0 4.43-3.26 7.44-6.13 10.56q-2.65 2.5-5.45 4.83c-1.38 1.17-1.38 1.17-2.8 2.36q-1.33 1.09-2.71 2.22c-2.21 2.1-2.21 2.1-1.73 4.71 0.92 2.89 1.84 3.99 4.09 5.98q0.99 0.89 2 1.81 1.04 0.91 2.1 1.84 2.05 1.83 4.09 3.66 0.91 0.8 1.84 1.62c1.82 1.78 3.31 3.52 4.7 5.66-0.26 3.51-1.02 5.03-3 8-6.02 0.84-10-0.94-15-4-2.55-2.02-4.87-4.22-7.19-6.5q-1.77-1.71-3.54-3.41-0.83-0.79-1.68-1.61c-2.1-1.95-4.35-3.7-6.59-5.48-2.02-2.65-2.91-4.54-3.56-7.81 1.39-7.91 8.19-12.87 13.93-17.94q0.94-0.83 1.9-1.68c6.4-5.49 13.32-10.65 22.04-7.82z"/>
</svg>