<svg width="100" height="100" viewBox="0 0 100 100" fill="none" xmlns="http://www.w3.org/2000/svg">
  <circle cx="50" cy="50" r="48" fill="#1a1a1a" stroke="#689F63" stroke-width="2"/>
  <g transform="translate(20, 20) scale(0.6)">
    <path d="M49.368 70.001C48.921 70.001 48.467 69.889 47.902 69.68L43.568 67.009C42.532 66.392 43.037 66.174 43.379 66.048C44.76 65.533 45.04 65.417 46.514 64.526C46.669 64.432 46.872 64.465 47.03 64.564L49.358 65.931C49.55 66.041 49.823 66.041 50.001 65.931L58.772 60.164C58.965 60.047 59.089 59.809 59.089 59.566V48.042C59.089 47.788 58.965 47.561 58.768 47.433L50.005 41.677C49.813 41.555 49.558 41.555 49.366 41.677L40.607 47.433C40.406 47.555 40.278 47.793 40.278 48.037V59.56C40.278 59.804 40.403 60.036 40.601 60.152L43.289 61.652C44.377 62.296 45.264 61.358 45.264 60.409V49.218C45.264 48.858 45.529 48.581 45.867 48.581H47.498C47.826 48.581 48.096 48.858 48.096 49.218V60.42C48.096 63.805 46.85 65.324 44.945 65.324C44.744 65.324 44.298 65.324 42.157 64.94L39.708 63.596C38.361 62.766 37.529 61.215 37.529 59.56V48.037C37.529 46.376 38.361 44.826 39.708 44.006L48.5 38.233C49.815 37.442 51.562 37.442 52.867 38.233L61.633 44.012C62.974 44.837 63.812 46.381 63.812 48.042V59.566C63.812 61.221 62.974 62.766 61.633 63.596L52.867 69.369C52.202 69.779 51.448 69.989 50.678 69.989" fill="#689F63"/>
    <path d="M54.096 57.413C48.008 57.413 46.103 54.971 46.103 52.245C46.103 51.89 46.371 51.608 46.704 51.608H48.387C48.683 51.608 48.933 51.838 48.98 52.15C49.385 54.061 50.591 54.529 54.087 54.529C56.465 54.529 57.326 53.976 57.326 53.004C57.326 52.581 57.096 52.223 55.995 52.015C51.307 51.217 48.792 50.883 48.792 47.038C48.792 44.576 50.328 42.918 54.25 42.918C58.9 42.918 61.196 44.376 61.612 47.658C61.628 47.841 61.565 48.018 61.451 48.151C61.336 48.278 61.175 48.356 61.009 48.356H59.311C59.03 48.356 58.785 48.145 58.728 47.857C58.078 46.096 56.508 45.816 54.24 45.816C51.461 45.816 50.905 46.588 50.905 47.516C50.905 48.227 51.26 48.498 56.007 49.306C60.692 50.108 62.423 50.982 62.423 53.86C62.423 56.677 60.648 58.439 54.066 58.439" fill="#689F63"/>
  </g>
</svg>
